<svg width="40" height="40" viewBox="0 0 40 40" fill="none" xmlns="http://www.w3.org/2000/svg">
<path d="M17.2434 8.87829C17.2434 8.3506 17.3729 7.86609 17.632 7.42475C17.891 6.99301 18.2364 6.64761 18.6682 6.38857C19.0999 6.12952 19.5844 6 20.1217 6C20.6494 6 21.1291 6.12952 21.5609 6.38857C22.0022 6.64762 22.3524 6.99301 22.6114 7.42475C22.8705 7.86609 23 8.3506 23 8.87829C23 9.6938 22.717 10.3846 22.1509 10.9507C21.5944 11.5167 20.918 11.7998 20.1217 11.7998C19.5844 11.7998 19.0999 11.6654 18.6682 11.3968C18.2364 11.1377 17.891 10.7876 17.632 10.3462C17.3729 9.91447 17.2434 9.42516 17.2434 8.87829ZM17.2434 19.5711C17.2434 19.0434 17.3729 18.5589 17.632 18.1176C17.891 17.6859 18.2364 17.3405 18.6682 17.0814C19.0999 16.832 19.5844 16.7072 20.1217 16.7072C20.6494 16.7072 21.1291 16.832 21.5609 17.0814C22.0022 17.3405 22.3524 17.6859 22.6114 18.1176C22.8705 18.5589 23 19.0434 23 19.5711C23 20.3675 22.717 21.0439 22.1509 21.6003C21.5944 22.1664 20.918 22.4494 20.1217 22.4494C19.5844 22.4494 19.0999 22.3199 18.6682 22.0609C18.2364 21.8018 17.891 21.4564 17.632 21.0247C17.3729 20.5929 17.2434 20.1084 17.2434 19.5711ZM17.2434 30.264C17.2434 29.7267 17.3729 29.2374 17.632 28.7961C17.891 28.3547 18.2364 28.0045 18.6682 27.7455C19.0999 27.4864 19.5844 27.3569 20.1217 27.3569C20.6494 27.3569 21.1291 27.4864 21.5609 27.7455C22.0022 28.0045 22.3524 28.3547 22.6114 28.7961C22.8705 29.2374 23 29.7267 23 30.264C23 31.0603 22.717 31.7367 22.1509 32.2932C21.5944 32.8592 20.918 33.1423 20.1217 33.1423C19.5844 33.1423 19.0999 33.0127 18.6682 32.7537C18.2364 32.4947 17.891 32.1445 17.632 31.7031C17.3729 31.2714 17.2434 30.7917 17.2434 30.264Z" fill="#0D0D0D"/>
</svg>
