<svg width="24" height="20" viewBox="0 0 24 20" fill="none" xmlns="http://www.w3.org/2000/svg">
<path d="M8.42285 18.5918C7.65527 18.5918 7.07227 18.3984 6.67383 18.0117C6.27539 17.625 6.07617 17.0508 6.07617 16.2891L9.0293 13.7139C9.19922 13.5732 9.36621 13.4678 9.53027 13.3975C9.7002 13.3213 9.87012 13.2832 10.04 13.2832C10.2334 13.2832 10.418 13.3184 10.5938 13.3887C10.7754 13.459 10.9512 13.5732 11.1211 13.7314L12.5273 15.0059L16.0781 11.8594C16.2598 11.6953 16.4473 11.5781 16.6406 11.5078C16.8398 11.4316 17.0479 11.3936 17.2646 11.3936C17.4756 11.3936 17.6836 11.4346 17.8887 11.5166C18.0938 11.5928 18.2812 11.71 18.4512 11.8682L22.5293 15.7178V16.2803C22.5293 17.0479 22.3301 17.625 21.9316 18.0117C21.5332 18.3984 20.9502 18.5918 20.1826 18.5918H8.42285ZM11.8945 12.0615C11.3789 12.0615 10.9395 11.877 10.5762 11.5078C10.2129 11.1387 10.0312 10.6963 10.0312 10.1807C10.0312 9.67676 10.2129 9.24023 10.5762 8.87109C10.9395 8.50195 11.3789 8.31738 11.8945 8.31738C12.2344 8.31738 12.5449 8.40234 12.8262 8.57227C13.1074 8.74219 13.333 8.9707 13.5029 9.25781C13.6729 9.53906 13.7578 9.84668 13.7578 10.1807C13.7578 10.6963 13.5732 11.1387 13.2041 11.5078C12.8408 11.877 12.4043 12.0615 11.8945 12.0615ZM2.25293 14.083L0.811523 5.91797C0.65332 5.02734 0.761719 4.31836 1.13672 3.79102C1.51172 3.26367 2.15039 2.91797 3.05273 2.75391L14.8828 0.670898C15.7852 0.512695 16.5 0.618164 17.0273 0.987305C17.5605 1.35645 17.9092 1.98633 18.0732 2.87695L18.583 5.74219H17.1504L16.6934 3.19336C16.6113 2.74805 16.4326 2.43164 16.1572 2.24414C15.8818 2.05664 15.5303 1.99805 15.1025 2.06836L3.3252 4.14258C2.8916 4.21875 2.57812 4.39453 2.38477 4.66992C2.19141 4.93945 2.13574 5.2998 2.21777 5.75098L3.63281 13.7666C3.71484 14.2178 3.89062 14.5371 4.16016 14.7246C4.43555 14.9121 4.79004 14.9678 5.22363 14.8916L6.51562 14.6631V16.0957L5.44336 16.2891C4.53516 16.4414 3.81738 16.3359 3.29004 15.9727C2.7627 15.6035 2.41699 14.9736 2.25293 14.083ZM8.3877 19.0576C7.46777 19.0576 6.77637 18.8291 6.31348 18.3721C5.85645 17.9209 5.62793 17.2412 5.62793 16.333V8.04492C5.62793 7.13672 5.85645 6.45703 6.31348 6.00586C6.77637 5.54883 7.46777 5.32031 8.3877 5.32031H20.3936C21.3076 5.32031 21.9961 5.54883 22.459 6.00586C22.9219 6.46289 23.1533 7.14258 23.1533 8.04492V16.333C23.1533 17.2412 22.9219 17.9209 22.459 18.3721C21.9961 18.8291 21.3076 19.0576 20.3936 19.0576H8.3877ZM8.40527 17.6426H20.3672C20.8008 17.6426 21.1377 17.5254 21.3779 17.291C21.6182 17.0625 21.7383 16.7197 21.7383 16.2627V8.12402C21.7383 7.66699 21.6182 7.32129 21.3779 7.08691C21.1377 6.85254 20.8008 6.73535 20.3672 6.73535H8.40527C7.96582 6.73535 7.62891 6.85254 7.39453 7.08691C7.16016 7.32129 7.04297 7.66699 7.04297 8.12402V16.2627C7.04297 16.7197 7.16016 17.0625 7.39453 17.291C7.62891 17.5254 7.96582 17.6426 8.40527 17.6426Z" fill="#CCCCCC"/>
</svg>
