<svg width="24" height="24" viewBox="0 0 24 24" fill="none" xmlns="http://www.w3.org/2000/svg">
<path d="M12 24C10.3608 24 8.81569 23.6863 7.36471 23.0588C5.92157 22.4314 4.64706 21.5647 3.54118 20.4588C2.43529 19.3529 1.56863 18.0784 0.941176 16.6353C0.313726 15.1843 0 13.6392 0 12C0 10.3608 0.313726 8.81961 0.941176 7.37647C1.56863 5.92549 2.43137 4.64706 3.52941 3.54118C4.63529 2.43529 5.9098 1.56863 7.35294 0.941176C8.80392 0.313726 10.349 0 11.9882 0C13.6275 0 15.1725 0.313726 16.6235 0.941176C18.0745 1.56863 19.3529 2.43529 20.4588 3.54118C21.5647 4.64706 22.4314 5.92549 23.0588 7.37647C23.6863 8.81961 24 10.3608 24 12C24 13.6392 23.6863 15.1843 23.0588 16.6353C22.4314 18.0784 21.5647 19.3529 20.4588 20.4588C19.3529 21.5647 18.0745 22.4314 16.6235 23.0588C15.1804 23.6863 13.6392 24 12 24ZM12 22C13.3882 22 14.6863 21.7412 15.8941 21.2235C17.102 20.7059 18.1647 19.9922 19.0824 19.0824C20 18.1647 20.7137 17.102 21.2235 15.8941C21.7412 14.6863 22 13.3882 22 12C22 10.6118 21.7412 9.31373 21.2235 8.10588C20.7059 6.89804 19.9882 5.83529 19.0706 4.91765C18.1608 4 17.098 3.28627 15.8824 2.77647C14.6745 2.25882 13.3765 2 11.9882 2C10.6 2 9.30196 2.25882 8.09412 2.77647C6.88627 3.28627 5.82745 4 4.91765 4.91765C4.00784 5.83529 3.29412 6.89804 2.77647 8.10588C2.26667 9.31373 2.01176 10.6118 2.01176 12C2.01176 13.3882 2.26667 14.6863 2.77647 15.8941C3.29412 17.102 4.00784 18.1647 4.91765 19.0824C5.83529 19.9922 6.89804 20.7059 8.10588 21.2235C9.31373 21.7412 10.6118 22 12 22ZM13.1647 15.7882C12.9216 16.0471 12.6667 16.2196 12.4 16.3059C12.1333 16.3922 11.8667 16.3922 11.6 16.3059C11.3412 16.2196 11.0863 16.0471 10.8353 15.7882L6.22353 10.8824C6.04314 10.702 5.95294 10.4941 5.95294 10.2588C5.95294 10.0157 6.03137 9.81176 6.18824 9.64706C6.36078 9.45882 6.57255 9.36471 6.82353 9.36471C7.07451 9.35686 7.28235 9.44314 7.44706 9.62353L12 14.4471L16.5529 9.62353C16.7255 9.44314 16.9333 9.35686 17.1765 9.36471C17.4275 9.36471 17.6431 9.45882 17.8235 9.64706C17.9882 9.80392 18.0667 10.0039 18.0588 10.2471C18.051 10.4902 17.9608 10.702 17.7882 10.8824L13.1647 15.7882Z" fill="#0D0D0D"/>
</svg>
