<svg width="28" height="27" viewBox="0 0 28 27" fill="none" xmlns="http://www.w3.org/2000/svg">
<path d="M7.74219 26.1016C6.54688 26.1016 5.64844 25.7969 5.04688 25.1875C4.44531 24.5859 4.14453 23.6836 4.14453 22.4805V4.66797C4.14453 3.44141 4.44531 2.52344 5.04688 1.91406C5.65625 1.29688 6.56641 0.988281 7.77734 0.988281H20.2227C21.4336 0.988281 22.3398 1.29688 22.9414 1.91406C23.5508 2.53125 23.8555 3.44922 23.8555 4.66797V18.1094C23.8555 18.6953 23.7461 19.1523 23.5273 19.4805C23.3086 19.8086 23.0898 20.082 22.8711 20.3008C22.3867 20.793 22.0898 21.3086 21.9805 21.8477C21.8711 22.3789 21.9219 22.8633 22.1328 23.3008C22.3516 23.7461 22.707 24.0664 23.1992 24.2617C23.3867 24.3242 23.543 24.4375 23.668 24.6016C23.793 24.7734 23.8555 24.9609 23.8555 25.1641C23.8555 25.4219 23.7617 25.6406 23.5742 25.8203C23.3945 26.0078 23.1758 26.1016 22.918 26.1016H7.74219ZM6.03125 19.3281C6.28906 19.1719 6.57422 19.0547 6.88672 18.9766C7.20703 18.8906 7.55859 18.8477 7.94141 18.8477H20.9492C21.6289 18.8477 21.9688 18.5156 21.9688 17.8516V4.70312C21.9688 4.11719 21.8125 3.66797 21.5 3.35547C21.1953 3.03516 20.7383 2.875 20.1289 2.875H7.85938C7.25781 2.875 6.80078 3.03516 6.48828 3.35547C6.18359 3.66797 6.03125 4.11719 6.03125 4.70312V19.3281ZM7.84766 24.2148H20.5508C20.2383 23.707 20.0625 23.1445 20.0234 22.5273C19.9922 21.918 20.1133 21.3086 20.3867 20.6992C20.2617 20.7227 20.125 20.7344 19.9766 20.7344H7.95312C7.36719 20.7344 6.89844 20.8945 6.54688 21.2148C6.20312 21.5273 6.03125 21.9453 6.03125 22.4688C6.03125 23.0234 6.18359 23.4531 6.48828 23.7578C6.80078 24.0625 7.25391 24.2148 7.84766 24.2148ZM7.41406 19.8555V2.41797H8.94922V19.8555H7.41406Z" fill="#ADADAD"/>
</svg>
