<svg width="50" height="50" viewBox="0 0 50 50" fill="none" xmlns="http://www.w3.org/2000/svg">
<g filter="url(#filter0_d_819_1489)">
<rect x="5" y="5" width="40" height="40" rx="20" fill="#0D0D0D"/>
<rect x="6.25" y="6.25" width="37.5" height="37.5" rx="18.75" stroke="white" stroke-width="2.5"/>
<path d="M31.6667 23.75C31.4456 23.75 31.2337 23.8378 31.0774 23.9941C30.9211 24.1504 30.8333 24.3623 30.8333 24.5833V30.4167C30.8333 30.6377 30.7455 30.8497 30.5893 31.0059C30.433 31.1622 30.221 31.25 30 31.25H18.3333C18.1123 31.25 17.9004 31.1622 17.7441 31.0059C17.5878 30.8497 17.5 30.6377 17.5 30.4167V23.75C17.5 23.529 17.5878 23.317 17.7441 23.1608C17.9004 23.0045 18.1123 22.9167 18.3333 22.9167H20C20.1817 22.9262 20.3615 22.8759 20.512 22.7736C20.6625 22.6713 20.7753 22.5225 20.8333 22.35L21.2833 20.9833C21.3392 20.8178 21.4457 20.6741 21.5878 20.5724C21.7299 20.4707 21.9003 20.4162 22.075 20.4167H26.6667C26.8877 20.4167 27.0996 20.3289 27.2559 20.1726C27.4122 20.0163 27.5 19.8044 27.5 19.5833C27.5 19.3623 27.4122 19.1504 27.2559 18.9941C27.0996 18.8378 26.8877 18.75 26.6667 18.75H22.0333C21.5096 18.751 20.9994 18.9164 20.5748 19.2229C20.1502 19.5294 19.8325 19.9616 19.6667 20.4583L19.4 21.2917H18.3333C17.6703 21.2917 17.0344 21.5551 16.5656 22.0239C16.0967 22.4928 15.8333 23.1286 15.8333 23.7917V30.4583C15.8333 31.1214 16.0967 31.7573 16.5656 32.2261C17.0344 32.695 17.6703 32.9583 18.3333 32.9583H30C30.663 32.9583 31.2989 32.695 31.7678 32.2261C32.2366 31.7573 32.5 31.1214 32.5 30.4583V24.625C32.5056 24.5121 32.4883 24.3993 32.4489 24.2933C32.4096 24.1873 32.3491 24.0905 32.2712 24.0086C32.1932 23.9268 32.0994 23.8616 31.9955 23.8172C31.8916 23.7727 31.7797 23.7499 31.6667 23.75ZM24.1667 22.9167C23.5074 22.9167 22.8629 23.1122 22.3148 23.4784C21.7666 23.8447 21.3394 24.3653 21.0871 24.9744C20.8348 25.5835 20.7688 26.2537 20.8974 26.9003C21.026 27.5469 21.3435 28.1409 21.8096 28.607C22.2758 29.0732 22.8698 29.3907 23.5164 29.5193C24.163 29.6479 24.8332 29.5819 25.4423 29.3296C26.0514 29.0773 26.572 28.6501 26.9382 28.1019C27.3045 27.5537 27.5 26.9093 27.5 26.25C27.5 25.366 27.1488 24.5181 26.5237 23.893C25.8986 23.2679 25.0507 22.9167 24.1667 22.9167ZM24.1667 27.9167C23.837 27.9167 23.5148 27.8189 23.2407 27.6358C22.9666 27.4527 22.753 27.1924 22.6269 26.8878C22.5007 26.5833 22.4677 26.2482 22.532 25.9249C22.5963 25.6016 22.7551 25.3046 22.9882 25.0715C23.2212 24.8384 23.5182 24.6797 23.8415 24.6154C24.1648 24.5511 24.4999 24.5841 24.8045 24.7102C25.109 24.8364 25.3693 25.05 25.5524 25.3241C25.7356 25.5981 25.8333 25.9204 25.8333 26.25C25.8333 26.692 25.6577 27.116 25.3452 27.4285C25.0326 27.7411 24.6087 27.9167 24.1667 27.9167ZM33.3333 18.75H32.5V17.9167C32.5 17.6957 32.4122 17.4837 32.2559 17.3274C32.0996 17.1711 31.8877 17.0833 31.6667 17.0833C31.4456 17.0833 31.2337 17.1711 31.0774 17.3274C30.9211 17.4837 30.8333 17.6957 30.8333 17.9167V18.75H30C29.779 18.75 29.567 18.8378 29.4107 18.9941C29.2545 19.1504 29.1667 19.3623 29.1667 19.5833C29.1667 19.8044 29.2545 20.0163 29.4107 20.1726C29.567 20.3289 29.779 20.4167 30 20.4167H30.8333V21.25C30.8333 21.471 30.9211 21.683 31.0774 21.8393C31.2337 21.9955 31.4456 22.0833 31.6667 22.0833C31.8877 22.0833 32.0996 21.9955 32.2559 21.8393C32.4122 21.683 32.5 21.471 32.5 21.25V20.4167H33.3333C33.5543 20.4167 33.7663 20.3289 33.9226 20.1726C34.0789 20.0163 34.1667 19.8044 34.1667 19.5833C34.1667 19.3623 34.0789 19.1504 33.9226 18.9941C33.7663 18.8378 33.5543 18.75 33.3333 18.75Z" fill="white"/>
</g>
<defs>
<filter id="filter0_d_819_1489" x="0" y="0" width="50" height="50" filterUnits="userSpaceOnUse" color-interpolation-filters="sRGB">
<feFlood flood-opacity="0" result="BackgroundImageFix"/>
<feColorMatrix in="SourceAlpha" type="matrix" values="0 0 0 0 0 0 0 0 0 0 0 0 0 0 0 0 0 0 127 0" result="hardAlpha"/>
<feOffset/>
<feGaussianBlur stdDeviation="2.5"/>
<feComposite in2="hardAlpha" operator="out"/>
<feColorMatrix type="matrix" values="0 0 0 0 0 0 0 0 0 0 0 0 0 0 0 0 0 0 0.25 0"/>
<feBlend mode="normal" in2="BackgroundImageFix" result="effect1_dropShadow_819_1489"/>
<feBlend mode="normal" in="SourceGraphic" in2="effect1_dropShadow_819_1489" result="shape"/>
</filter>
</defs>
</svg>
