<svg width="14" height="13" viewBox="0 0 14 13" fill="none" xmlns="http://www.w3.org/2000/svg">
<path d="M1.86302 10.0297V4.39308C1.86302 3.7237 1.98998 3.14435 2.24388 2.65501C2.49778 2.16105 2.84632 1.7802 3.28949 1.51245C3.73728 1.2447 4.2497 1.11083 4.82675 1.11083C5.4038 1.11083 5.91622 1.2447 6.36401 1.51245C6.81641 1.7802 7.16957 2.16105 7.42347 2.65501C7.68199 3.14435 7.81125 3.7237 7.81125 4.39308V9.13642C7.81125 9.74117 7.97744 10.2167 8.30982 10.5629C8.6422 10.9091 9.05998 11.0822 9.56317 11.0822C10.0617 11.0822 10.4726 10.9068 10.7957 10.556C11.1235 10.2051 11.2874 9.73194 11.2874 9.13642V3.36132H12.5269V9.03948C12.5269 9.70886 12.3999 10.2905 12.146 10.7845C11.8921 11.2738 11.5413 11.6524 11.0935 11.9201C10.6503 12.1879 10.1402 12.3217 9.56317 12.3217C8.98612 12.3217 8.47139 12.1879 8.01898 11.9201C7.57119 11.6524 7.21804 11.2738 6.95952 10.7845C6.70562 10.2905 6.57867 9.70886 6.57867 9.03948V4.29614C6.57867 3.69139 6.41248 3.2159 6.0801 2.86967C5.74772 2.51883 5.32993 2.3434 4.82675 2.3434C4.32818 2.3434 3.91501 2.51883 3.58725 2.86967C3.2641 3.22052 3.10253 3.69601 3.10253 4.29614V10.0297H1.86302ZM0.893582 9.50343H4.07197C4.31664 9.50343 4.46898 9.57498 4.52899 9.71809C4.59362 9.8612 4.559 10.0274 4.42512 10.2167L2.87401 12.4256C2.76322 12.5826 2.63396 12.661 2.48624 12.661C2.33851 12.6657 2.20695 12.5872 2.09154 12.4256L0.540428 10.2236C0.406553 10.0343 0.369622 9.86812 0.429635 9.72501C0.489648 9.57729 0.644297 9.50343 0.893582 9.50343ZM10.3249 3.92913C10.0756 3.92913 9.91863 3.85758 9.854 3.71447C9.79399 3.56675 9.83323 3.39594 9.97172 3.20205L11.5228 1.00003C11.6336 0.838459 11.7629 0.75998 11.9106 0.764597C12.0629 0.764597 12.1945 0.843075 12.3053 1.00003L13.8495 3.20898C13.9834 3.39825 14.018 3.56675 13.9534 3.71447C13.8933 3.85758 13.741 3.92913 13.4963 3.92913H10.3249Z" fill="#757575"/>
</svg>
