<svg width="26" height="24" viewBox="0 0 26 24" fill="none" xmlns="http://www.w3.org/2000/svg">
<path d="M12.8662 0.500122C13.0249 0.500122 13.1439 0.551081 13.2529 0.664185L13.2598 0.670044C13.3951 0.805401 13.5349 1.03726 13.6562 1.40637V1.40735L15.9072 8.47571L16.0186 8.82629L16.3867 8.82434L23.7949 8.77942H23.8008C24.1917 8.7727 24.4513 8.83181 24.6152 8.91614C24.766 8.99369 24.8516 9.0955 24.8994 9.23547V9.23645C24.9483 9.38709 24.9389 9.52104 24.8633 9.66809C24.7777 9.83443 24.6013 10.034 24.2852 10.256L24.2803 10.2599L18.2412 14.6027L17.9414 14.8185L18.0586 15.1681L20.4229 22.2023L20.4248 22.2091C20.5198 22.479 20.5555 22.6923 20.5537 22.8575L20.54 23.007L20.5381 23.0197C20.5123 23.1866 20.4408 23.3017 20.3154 23.3947L20.3076 23.4015C20.1913 23.4915 20.0764 23.5189 19.9229 23.4874L19.9102 23.4855L19.7529 23.4445C19.6408 23.4072 19.5147 23.3489 19.374 23.2648L19.1523 23.1193L13.1621 18.7228L12.8662 18.505L12.5703 18.7228L6.58691 23.1222C6.27884 23.3425 6.02926 23.4504 5.83398 23.4855L5.82129 23.4874C5.66768 23.5189 5.55283 23.4914 5.43652 23.4015L5.42773 23.3947C5.3007 23.3002 5.22482 23.1815 5.19336 23.0118C5.16681 22.8278 5.19362 22.5664 5.31934 22.2091L5.32129 22.2023L7.68555 15.1681L7.80273 14.8185L7.50293 14.6027L1.46387 10.2599L1.45898 10.256C1.14283 10.034 0.966435 9.83443 0.880859 9.66809C0.805233 9.52104 0.794896 9.38611 0.84375 9.23547C0.891532 9.09534 0.978051 8.99375 1.12891 8.91614C1.29288 8.83181 1.55238 8.7727 1.94336 8.77942H1.94922L9.35742 8.82434L9.72461 8.82629L9.83691 8.47571L12.0859 1.41125C12.2078 1.03878 12.3454 0.803379 12.4766 0.666138C12.5971 0.547107 12.7199 0.50016 12.8662 0.500122Z" stroke="#9E9E9E"/>
</svg>
