<svg width="18" height="18" viewBox="0 0 18 18" fill="none" xmlns="http://www.w3.org/2000/svg">
<path d="M11.0811 14.3955C10.7803 14.3955 10.5046 14.3203 10.2539 14.1699C10.0078 14.0241 9.80957 13.8258 9.65918 13.5752C9.50879 13.3291 9.43359 13.0557 9.43359 12.7549C9.43359 12.4541 9.50879 12.1807 9.65918 11.9346C9.80957 11.6839 10.0078 11.4857 10.2539 11.3398C10.5046 11.1895 10.7803 11.1143 11.0811 11.1143C11.3818 11.1143 11.6553 11.1895 11.9014 11.3398C12.152 11.4857 12.3503 11.6839 12.4961 11.9346C12.6465 12.1807 12.7217 12.4541 12.7217 12.7549C12.7217 13.0557 12.6465 13.3291 12.4961 13.5752C12.3503 13.8258 12.152 14.0241 11.9014 14.1699C11.6553 14.3203 11.3818 14.3955 11.0811 14.3955ZM11.0811 13.5547C11.3044 13.5547 11.4935 13.4772 11.6484 13.3223C11.8034 13.1673 11.8809 12.9782 11.8809 12.7549C11.8809 12.527 11.8034 12.3379 11.6484 12.1875C11.4935 12.0326 11.3044 11.9551 11.0811 11.9551C10.8577 11.9551 10.6686 12.0326 10.5137 12.1875C10.3587 12.3379 10.2812 12.527 10.2812 12.7549C10.2812 12.9782 10.3587 13.1673 10.5137 13.3223C10.6686 13.4772 10.8577 13.5547 11.0811 13.5547ZM9.99414 12.2012V13.3018H2.29004C2.13965 13.3018 2.00977 13.2493 1.90039 13.1445C1.79557 13.0352 1.74316 12.9053 1.74316 12.7549C1.74316 12.5999 1.79557 12.4701 1.90039 12.3652C2.00977 12.2559 2.13965 12.2012 2.29004 12.2012H9.99414ZM14.9912 12.2012C15.1325 12.2012 15.2555 12.2559 15.3604 12.3652C15.4652 12.4701 15.5176 12.5999 15.5176 12.7549C15.5176 12.9053 15.4652 13.0352 15.3604 13.1445C15.2555 13.2493 15.1325 13.3018 14.9912 13.3018H12.2705V12.2012H14.9912ZM6.25488 10.2256C5.9541 10.2256 5.67839 10.1504 5.42773 10C5.18164 9.84961 4.9834 9.65137 4.83301 9.40527C4.68717 9.15462 4.61426 8.87891 4.61426 8.57812C4.61426 8.27734 4.68717 8.00391 4.83301 7.75781C4.9834 7.50716 5.18164 7.30892 5.42773 7.16309C5.67839 7.0127 5.9541 6.9375 6.25488 6.9375C6.55566 6.9375 6.8291 7.0127 7.0752 7.16309C7.32585 7.30892 7.52409 7.50716 7.66992 7.75781C7.82031 8.00391 7.89551 8.27734 7.89551 8.57812C7.89551 8.87891 7.82031 9.15462 7.66992 9.40527C7.52409 9.65137 7.32585 9.84961 7.0752 10C6.8291 10.1504 6.55566 10.2256 6.25488 10.2256ZM6.25488 9.37793C6.48275 9.37793 6.67188 9.30046 6.82227 9.14551C6.97721 8.99056 7.05469 8.80143 7.05469 8.57812C7.05469 8.35026 6.97721 8.16113 6.82227 8.01074C6.67188 7.85579 6.48275 7.77832 6.25488 7.77832C6.03158 7.77832 5.84245 7.85579 5.6875 8.01074C5.53255 8.16113 5.45508 8.35026 5.45508 8.57812C5.45508 8.80143 5.53255 8.99056 5.6875 9.14551C5.84245 9.30046 6.03158 9.37793 6.25488 9.37793ZM2.2627 8.02441H5.0791V9.125H2.2627C2.12598 9.125 2.00521 9.07259 1.90039 8.96777C1.79557 8.86296 1.74316 8.73307 1.74316 8.57812C1.74316 8.42318 1.79557 8.29329 1.90039 8.18848C2.00521 8.0791 2.12598 8.02441 2.2627 8.02441ZM14.9639 8.02441C15.1188 8.02441 15.2487 8.0791 15.3535 8.18848C15.4629 8.29329 15.5176 8.42318 15.5176 8.57812C15.5176 8.73307 15.4629 8.86296 15.3535 8.96777C15.2487 9.07259 15.1188 9.125 14.9639 9.125H7.3418V8.02441H14.9639ZM11.0811 6.04199C10.7803 6.04199 10.5046 5.96908 10.2539 5.82324C10.0078 5.67285 9.80957 5.47461 9.65918 5.22852C9.50879 4.97786 9.43359 4.70215 9.43359 4.40137C9.43359 4.10059 9.50879 3.82715 9.65918 3.58105C9.80957 3.3304 10.0078 3.12988 10.2539 2.97949C10.5046 2.8291 10.7803 2.75391 11.0811 2.75391C11.3818 2.75391 11.6553 2.8291 11.9014 2.97949C12.152 3.12988 12.3503 3.3304 12.4961 3.58105C12.6465 3.82715 12.7217 4.10059 12.7217 4.40137C12.7217 4.70215 12.6465 4.97786 12.4961 5.22852C12.3503 5.47461 12.152 5.67285 11.9014 5.82324C11.6553 5.96908 11.3818 6.04199 11.0811 6.04199ZM11.0811 5.20117C11.3044 5.20117 11.4935 5.1237 11.6484 4.96875C11.8034 4.80924 11.8809 4.61784 11.8809 4.39453C11.8809 4.17122 11.8034 3.9821 11.6484 3.82715C11.4935 3.6722 11.3044 3.59473 11.0811 3.59473C10.8577 3.59473 10.6686 3.6722 10.5137 3.82715C10.3587 3.9821 10.2812 4.17122 10.2812 4.39453C10.2812 4.61784 10.3587 4.80924 10.5137 4.96875C10.6686 5.1237 10.8577 5.20117 11.0811 5.20117ZM10.0283 3.85449V4.95508H2.29004C2.13965 4.95508 2.00977 4.90267 1.90039 4.79785C1.79557 4.68848 1.74316 4.55632 1.74316 4.40137C1.74316 4.25098 1.79557 4.12337 1.90039 4.01855C2.00977 3.90918 2.13965 3.85449 2.29004 3.85449H10.0283ZM14.9912 3.85449C15.1325 3.85449 15.2555 3.90918 15.3604 4.01855C15.4652 4.12337 15.5176 4.25098 15.5176 4.40137C15.5176 4.55632 15.4652 4.68848 15.3604 4.79785C15.2555 4.90267 15.1325 4.95508 14.9912 4.95508H12.1748V3.85449H14.9912Z" fill="#0D0D0D"/>
</svg>
