<svg width="24" height="16" viewBox="0 0 24 16" fill="none" xmlns="http://www.w3.org/2000/svg">
<path d="M7.18671 2.25599C6.93847 2.25599 6.72675 2.17203 6.55152 2.00411C6.3836 1.83619 6.29964 1.62811 6.29964 1.37988C6.29964 1.13164 6.3836 0.923568 6.55152 0.755647C6.72675 0.580424 6.93847 0.492813 7.18671 0.492813H22.1463C22.3946 0.492813 22.6026 0.580424 22.7706 0.755647C22.9458 0.923568 23.0334 1.13164 23.0334 1.37988C23.0334 1.62811 22.9458 1.83619 22.7706 2.00411C22.6026 2.17203 22.3946 2.25599 22.1463 2.25599H7.18671ZM7.18671 8.88159C6.93847 8.88159 6.72675 8.79763 6.55152 8.62971C6.3836 8.45448 6.29964 8.24276 6.29964 7.99452C6.29964 7.74629 6.3836 7.53822 6.55152 7.37029C6.72675 7.20237 6.93847 7.11841 7.18671 7.11841H22.1463C22.3946 7.11841 22.6026 7.20237 22.7706 7.37029C22.9458 7.53822 23.0334 7.74629 23.0334 7.99452C23.0334 8.24276 22.9458 8.45448 22.7706 8.62971C22.6026 8.79763 22.3946 8.88159 22.1463 8.88159H7.18671ZM7.18671 15.4962C6.93847 15.4962 6.72675 15.4123 6.55152 15.2444C6.3836 15.0764 6.29964 14.8684 6.29964 14.6201C6.29964 14.3719 6.3836 14.1638 6.55152 13.9959C6.72675 13.8207 6.93847 13.7331 7.18671 13.7331H22.1463C22.3946 13.7331 22.6026 13.8207 22.7706 13.9959C22.9458 14.1638 23.0334 14.3719 23.0334 14.6201C23.0334 14.8684 22.9458 15.0764 22.7706 15.2444C22.6026 15.4123 22.3946 15.4962 22.1463 15.4962H7.18671ZM2.34619 2.7488C1.96654 2.7488 1.64165 2.61739 1.37151 2.35455C1.10138 2.08442 0.966309 1.75953 0.966309 1.37988C0.966309 0.992927 1.10138 0.668036 1.37151 0.405202C1.64165 0.135067 1.96654 0 2.34619 0C2.72583 0 3.05073 0.135067 3.32086 0.405202C3.59099 0.668036 3.72606 0.992927 3.72606 1.37988C3.72606 1.75953 3.59099 2.08442 3.32086 2.35455C3.05073 2.61739 2.72583 2.7488 2.34619 2.7488ZM2.34619 9.3744C1.96654 9.3744 1.64165 9.23933 1.37151 8.9692C1.10138 8.69906 0.966309 8.37417 0.966309 7.99452C0.966309 7.61488 1.10138 7.28998 1.37151 7.01985C1.64165 6.74971 1.96654 6.61465 2.34619 6.61465C2.72583 6.61465 3.05073 6.74971 3.32086 7.01985C3.59099 7.28998 3.72606 7.61488 3.72606 7.99452C3.72606 8.37417 3.59099 8.69906 3.32086 8.9692C3.05073 9.23933 2.72583 9.3744 2.34619 9.3744ZM2.34619 16C1.96654 16 1.64165 15.8649 1.37151 15.5948C1.10138 15.3247 0.966309 14.9998 0.966309 14.6201C0.966309 14.2332 1.10138 13.9083 1.37151 13.6454C1.64165 13.3753 1.96654 13.2402 2.34619 13.2402C2.72583 13.2402 3.05073 13.3753 3.32086 13.6454C3.59099 13.9083 3.72606 14.2332 3.72606 14.6201C3.72606 14.9998 3.59099 15.3247 3.32086 15.5948C3.05073 15.8649 2.72583 16 2.34619 16Z" fill="white"/>
</svg>
