<svg width="17" height="18" viewBox="0 0 17 18" fill="none" xmlns="http://www.w3.org/2000/svg">
<path d="M5.92969 3.63574C5.92969 3.16178 6.04362 2.73112 6.27148 2.34375C6.50391 1.95182 6.8138 1.63965 7.20117 1.40723C7.58854 1.1748 8.01921 1.05859 8.49316 1.05859C8.97168 1.05859 9.40462 1.1748 9.79199 1.40723C10.1794 1.63965 10.487 1.95182 10.7148 2.34375C10.9473 2.73112 11.0635 3.16178 11.0635 3.63574C11.0635 4.03678 10.9792 4.4082 10.8105 4.75C10.6419 5.0918 10.4118 5.38346 10.1201 5.625C9.82845 5.86654 9.49805 6.03288 9.12891 6.12402V10.4512C9.12891 10.957 9.1084 11.4036 9.06738 11.791C9.02637 12.1784 8.97396 12.5042 8.91016 12.7686C8.85091 13.0329 8.78255 13.2334 8.70508 13.3701C8.63216 13.5023 8.56152 13.5684 8.49316 13.5684C8.4248 13.5684 8.35417 13.5023 8.28125 13.3701C8.20833 13.2334 8.13997 13.0329 8.07617 12.7686C8.01237 12.5042 7.95996 12.1784 7.91895 11.791C7.87793 11.4036 7.85742 10.957 7.85742 10.4512V6.12402C7.48828 6.03288 7.15788 5.86654 6.86621 5.625C6.57454 5.38346 6.3444 5.0918 6.17578 4.75C6.01172 4.4082 5.92969 4.03678 5.92969 3.63574ZM7.76172 3.77246C8.00326 3.77246 8.21061 3.68587 8.38379 3.5127C8.55697 3.33496 8.64355 3.1276 8.64355 2.89062C8.64355 2.65365 8.55697 2.44857 8.38379 2.27539C8.21061 2.10221 8.00326 2.01562 7.76172 2.01562C7.5293 2.01562 7.32422 2.10221 7.14648 2.27539C6.97331 2.44857 6.88672 2.65365 6.88672 2.89062C6.88672 3.1276 6.97331 3.33496 7.14648 3.5127C7.32422 3.68587 7.5293 3.77246 7.76172 3.77246ZM8.5 16.0703C7.47005 16.0703 6.55176 15.9883 5.74512 15.8242C4.94303 15.6647 4.264 15.446 3.70801 15.168C3.15202 14.8945 2.72819 14.5824 2.43652 14.2314C2.14941 13.8851 2.00586 13.5228 2.00586 13.1445C2.00586 12.7845 2.1084 12.4541 2.31348 12.1533C2.51855 11.848 2.79199 11.5768 3.13379 11.3398C3.47559 11.1029 3.85384 10.9023 4.26855 10.7383C4.68783 10.5697 5.11165 10.4421 5.54004 10.3555C5.97298 10.2643 6.3763 10.2188 6.75 10.2188V11.2168C6.42188 11.2214 6.06413 11.2692 5.67676 11.3604C5.28939 11.4469 4.92253 11.5677 4.57617 11.7227C4.22982 11.8776 3.94499 12.0622 3.72168 12.2764C3.50293 12.4906 3.39355 12.7253 3.39355 12.9805C3.39355 13.2767 3.51888 13.5479 3.76953 13.7939C4.02474 14.04 4.38021 14.252 4.83594 14.4297C5.29622 14.6074 5.83626 14.7441 6.45605 14.8398C7.0804 14.9401 7.76172 14.9902 8.5 14.9902C9.23372 14.9902 9.91048 14.9401 10.5303 14.8398C11.1546 14.7441 11.6947 14.6051 12.1504 14.4229C12.6107 14.2451 12.9684 14.0332 13.2236 13.7871C13.4788 13.5456 13.6064 13.2767 13.6064 12.9805C13.6064 12.7253 13.4948 12.4906 13.2715 12.2764C13.0482 12.0622 12.7633 11.8776 12.417 11.7227C12.0706 11.5677 11.7038 11.4469 11.3164 11.3604C10.9336 11.2692 10.5758 11.2214 10.2432 11.2168V10.2188C10.6214 10.2188 11.0247 10.2643 11.4531 10.3555C11.8861 10.4421 12.3099 10.5697 12.7246 10.7383C13.1439 10.9023 13.5244 11.1029 13.8662 11.3398C14.208 11.5768 14.4792 11.848 14.6797 12.1533C14.8848 12.4541 14.9873 12.7845 14.9873 13.1445C14.9873 13.5228 14.8438 13.8851 14.5566 14.2314C14.2695 14.5824 13.848 14.8945 13.292 15.168C12.736 15.446 12.0547 15.6647 11.248 15.8242C10.446 15.9883 9.52995 16.0703 8.5 16.0703Z" fill="white"/>
</svg>
