<svg width="24" height="25" viewBox="0 0 24 25" fill="none" xmlns="http://www.w3.org/2000/svg">
<path d="M8.2 11.3621V8.16211C8.2 7.10124 8.62143 6.08383 9.37157 5.33368C10.1217 4.58354 11.1391 4.16211 12.2 4.16211C13.2609 4.16211 14.2783 4.58354 15.0284 5.33368C15.7786 6.08383 16.2 7.10124 16.2 8.16211V11.3621M6.6 11.3621H17.8C18.6837 11.3621 19.4 12.0785 19.4 12.9621V18.5621C19.4 19.4458 18.6837 20.1621 17.8 20.1621H6.6C5.71634 20.1621 5 19.4458 5 18.5621V12.9621C5 12.0785 5.71634 11.3621 6.6 11.3621Z" stroke="#0D0D0D" stroke-width="1.8" stroke-linecap="round" stroke-linejoin="round"/>
</svg>
