<svg width="26" height="22" viewBox="0 0 26 22" fill="none" xmlns="http://www.w3.org/2000/svg">
<path d="M3.94727 20.207C3.5957 20.207 3.32227 20.1094 3.12695 19.9141C2.93815 19.7188 2.84375 19.4388 2.84375 19.0742V5.93945C2.84375 5.60742 2.91211 5.32422 3.04883 5.08984C3.18555 4.84896 3.39714 4.64714 3.68359 4.48438L8.76172 1.59375C9.06771 1.41146 9.40299 1.32031 9.76758 1.32031C10.1257 1.32031 10.4544 1.41146 10.7539 1.59375L16.0566 4.8457L21.2324 1.96484C21.3952 1.88021 21.5417 1.81836 21.6719 1.7793C21.8021 1.73372 21.929 1.71094 22.0527 1.71094C22.4043 1.71094 22.6745 1.80859 22.8633 2.00391C23.0586 2.19922 23.1562 2.47591 23.1562 2.83398V15.9883C23.1562 16.3138 23.0879 16.597 22.9512 16.8379C22.8145 17.0723 22.5996 17.2708 22.3066 17.4336L17.1992 20.334C16.9062 20.5033 16.5807 20.5879 16.2227 20.5879C15.8451 20.5879 15.4805 20.4902 15.1289 20.2949L9.72852 17.2676L4.75781 19.9434C4.60156 20.0345 4.45833 20.0996 4.32812 20.1387C4.19792 20.1842 4.07096 20.207 3.94727 20.207ZM9.09375 15.7148V3.24414C9.03516 3.27669 8.97656 3.30924 8.91797 3.3418C8.86589 3.37435 8.80729 3.4069 8.74219 3.43945L4.73828 5.7832C4.62109 5.84831 4.53646 5.92643 4.48438 6.01758C4.4388 6.10221 4.41602 6.20312 4.41602 6.32031V18.0293C4.41602 18.1335 4.45833 18.1855 4.54297 18.1855C4.57552 18.1855 4.62435 18.1693 4.68945 18.1367L9.09375 15.7148ZM10.666 15.8711L14.9043 18.2637C14.9759 18.3027 15.0475 18.3385 15.1191 18.3711C15.1908 18.4102 15.2624 18.4492 15.334 18.4883V6.28125L10.9785 3.625C10.9264 3.59245 10.8743 3.56315 10.8223 3.53711C10.7702 3.50456 10.7181 3.47526 10.666 3.44922V15.8711ZM16.9062 18.6641C16.9779 18.625 17.0495 18.5859 17.1211 18.5469C17.1992 18.5078 17.2741 18.4655 17.3457 18.4199L21.2617 16.1445C21.3789 16.0794 21.4603 16.0013 21.5059 15.9102C21.5579 15.819 21.584 15.7148 21.584 15.5977V3.88867C21.584 3.83659 21.571 3.79753 21.5449 3.77148C21.5254 3.74544 21.4928 3.73242 21.4473 3.73242C21.4212 3.73242 21.3757 3.7487 21.3105 3.78125L16.9062 6.18359V18.6641Z" fill="white"/>
</svg>
