<svg width="14" height="23" viewBox="0 0 14 23" fill="none" xmlns="http://www.w3.org/2000/svg">
<path d="M2.16442 22.0163C1.97363 22.2465 1.75324 22.3617 1.50324 22.3617C1.25982 22.3682 1.04271 22.2926 0.851921 22.1347C0.661132 21.9768 0.546 21.7728 0.506526 21.5228C0.473632 21.2728 0.572316 21.0097 0.802579 20.7334L3.7335 17.2597L4.21705 15.0294L5.80587 17.0228L5.58876 17.6939C5.52955 17.8715 5.47363 18.0064 5.421 18.0985C5.37495 18.184 5.27955 18.3123 5.13482 18.4834L2.16442 22.0163ZM9.38811 21.7202L7.32561 17.536C7.28613 17.4571 7.24995 17.3847 7.21705 17.3189C7.18416 17.2465 7.11837 17.1478 7.01968 17.0228L5.0164 14.5163C4.6414 14.0492 4.38153 13.6446 4.23679 13.3025C4.09863 12.9538 4.05258 12.5064 4.09863 11.9603L4.25653 9.79916C4.26311 9.66758 4.19732 9.57548 4.05916 9.52285C3.92758 9.46364 3.796 9.49324 3.66442 9.61166L2.94403 10.263L2.71705 12.8189C2.69732 13.1347 2.60521 13.3715 2.44074 13.5294C2.27626 13.6873 2.05587 13.7564 1.77955 13.7367C1.50982 13.7235 1.29929 13.6248 1.14797 13.4406C0.996658 13.2498 0.934158 13.0064 0.960474 12.7103L1.13811 10.3814C1.16442 10.059 1.22692 9.786 1.32561 9.56232C1.42429 9.33864 1.59534 9.10508 1.83876 8.86166L3.34863 7.37153C3.82889 6.90443 4.26968 6.54587 4.671 6.29587C5.07232 6.03929 5.53284 5.911 6.05258 5.911C6.74995 5.911 7.28284 6.14127 7.65126 6.60179C8.02626 7.05574 8.19074 7.61824 8.14468 8.28929L7.94732 11.1413C7.90784 11.6478 7.84863 12.0886 7.76968 12.4636C7.69074 12.8386 7.56903 13.2827 7.40455 13.7959L7.31574 14.0623L8.58876 15.8682C8.68087 15.9998 8.77626 16.1478 8.87495 16.3123C8.97363 16.4702 9.06245 16.6248 9.1414 16.7761L11.1546 20.8518C11.319 21.1873 11.3519 21.4768 11.2532 21.7202C11.1546 21.9702 10.9868 22.1478 10.7499 22.2531C10.5131 22.3584 10.2631 22.3715 9.99995 22.2926C9.74337 22.2202 9.53942 22.0294 9.38811 21.7202ZM12.8223 9.75969C13.1184 9.75969 13.3552 9.84192 13.5328 10.0064C13.7171 10.1709 13.8092 10.3847 13.8092 10.6478C13.8092 10.9242 13.7171 11.1413 13.5328 11.2992C13.3552 11.4571 13.1184 11.536 12.8223 11.536H10.7006C10.4046 11.536 10.171 11.5064 9.99995 11.4472C9.83547 11.388 9.67429 11.2794 9.5164 11.1215L8.94403 10.5492L9.11179 8.17087L10.5427 9.75969H12.8223ZM7.15784 5.02285C6.75653 5.02285 6.3914 4.92745 6.06245 4.73666C5.74008 4.53929 5.4835 4.27943 5.29271 3.95706C5.10192 3.62811 5.00653 3.26627 5.00653 2.87153C5.00653 2.47021 5.10192 2.10837 5.29271 1.786C5.4835 1.45706 5.74008 1.19719 6.06245 1.0064C6.3914 0.81561 6.75653 0.720215 7.15784 0.720215C7.55258 0.720215 7.91113 0.81561 8.2335 1.0064C8.56245 1.19719 8.82232 1.45706 9.01311 1.786C9.2039 2.10837 9.29929 2.47021 9.29929 2.87153C9.29929 3.26627 9.2039 3.62811 9.01311 3.95706C8.82232 4.27943 8.56245 4.53929 8.2335 4.73666C7.91113 4.92745 7.55258 5.02285 7.15784 5.02285Z" fill="#757575"/>
</svg>
