<svg width="28" height="25" viewBox="0 0 28 25" fill="none" xmlns="http://www.w3.org/2000/svg">
<path d="M2.55078 10.3359C2.55078 9.04688 2.79297 7.83984 3.27734 6.71484C3.76172 5.58203 4.43359 4.58594 5.29297 3.72656C6.15234 2.86719 7.14453 2.19531 8.26953 1.71094C9.40234 1.22656 10.6133 0.984375 11.9023 0.984375C13.1914 0.984375 14.3984 1.22656 15.5234 1.71094C16.6562 2.19531 17.6523 2.86719 18.5117 3.72656C19.3711 4.58594 20.043 5.58203 20.5273 6.71484C21.0117 7.83984 21.2539 9.04688 21.2539 10.3359C21.2539 11.4062 21.082 12.4219 20.7383 13.3828C20.4023 14.3438 19.9336 15.2148 19.332 15.9961L25.0625 21.7617C25.1875 21.8867 25.2812 22.0312 25.3438 22.1953C25.4141 22.3594 25.4492 22.5352 25.4492 22.7227C25.4492 22.9805 25.3906 23.2148 25.2734 23.4258C25.1641 23.6367 25.0078 23.8008 24.8047 23.918C24.6016 24.043 24.3672 24.1055 24.1016 24.1055C23.9141 24.1055 23.7344 24.0703 23.5625 24C23.3984 23.9375 23.2461 23.8398 23.1055 23.707L17.3398 17.9297C16.5742 18.4766 15.7305 18.9062 14.8086 19.2188C13.8867 19.5312 12.918 19.6875 11.9023 19.6875C10.6133 19.6875 9.40234 19.4453 8.26953 18.9609C7.14453 18.4766 6.15234 17.8047 5.29297 16.9453C4.43359 16.0859 3.76172 15.0938 3.27734 13.9688C2.79297 12.8359 2.55078 11.625 2.55078 10.3359ZM4.55469 10.3359C4.55469 11.3516 4.74219 12.3047 5.11719 13.1953C5.5 14.0781 6.02734 14.8555 6.69922 15.5273C7.37891 16.1992 8.16016 16.7266 9.04297 17.1094C9.93359 17.4922 10.8867 17.6836 11.9023 17.6836C12.918 17.6836 13.8672 17.4922 14.75 17.1094C15.6406 16.7266 16.4219 16.1992 17.0938 15.5273C17.7656 14.8555 18.293 14.0781 18.6758 13.1953C19.0586 12.3047 19.25 11.3516 19.25 10.3359C19.25 9.32031 19.0586 8.37109 18.6758 7.48828C18.293 6.59766 17.7656 5.81641 17.0938 5.14453C16.4219 4.46484 15.6406 3.9375 14.75 3.5625C13.8672 3.17969 12.918 2.98828 11.9023 2.98828C10.8867 2.98828 9.93359 3.17969 9.04297 3.5625C8.16016 3.9375 7.37891 4.46484 6.69922 5.14453C6.02734 5.81641 5.5 6.59766 5.11719 7.48828C4.74219 8.37109 4.55469 9.32031 4.55469 10.3359Z" fill="black"/>
</svg>
