<svg width="16" height="20" viewBox="0 0 16 20" fill="none" xmlns="http://www.w3.org/2000/svg">
<path d="M3.18249 19.5099C2.30404 19.5099 1.6438 19.2916 1.20178 18.8552C0.765348 18.4244 0.547133 17.7753 0.547133 16.9081V8.62431C0.547133 7.75705 0.765348 7.108 1.20178 6.67717C1.6438 6.24074 2.30404 6.02252 3.18249 6.02252H5.75071V7.37377H3.19928C2.77964 7.37377 2.45791 7.48568 2.2341 7.70949C2.01029 7.9277 1.89838 8.25503 1.89838 8.69146V16.8409C1.89838 17.2774 2.01029 17.6047 2.2341 17.8229C2.45791 18.0467 2.77964 18.1586 3.19928 18.1586H12.7839C13.198 18.1586 13.5197 18.0467 13.7491 17.8229C13.9785 17.6047 14.0932 17.2774 14.0932 16.8409V8.69146C14.0932 8.25503 13.9785 7.9277 13.7491 7.70949C13.5197 7.48568 13.198 7.37377 12.7839 7.37377H10.2325V6.02252H12.8091C13.6876 6.02252 14.345 6.24074 14.7814 6.67717C15.2235 7.108 15.4445 7.75705 15.4445 8.62431V16.9081C15.4445 17.7753 15.2235 18.4244 14.7814 18.8552C14.345 19.2916 13.6876 19.5099 12.8091 19.5099H3.18249ZM7.99161 12.9299C7.81256 12.9299 7.65589 12.8655 7.52161 12.7368C7.39292 12.6081 7.32857 12.4571 7.32857 12.2836V3.73966L7.37893 2.48913L6.90893 2.98431L5.60803 4.36913C5.49053 4.50341 5.33666 4.57056 5.14642 4.57056C4.97297 4.57056 4.8275 4.5146 4.71 4.4027C4.59809 4.29079 4.54214 4.15091 4.54214 3.98306C4.54214 3.82079 4.60928 3.67252 4.74357 3.53823L7.50482 0.869302C7.59434 0.785374 7.67548 0.729421 7.74821 0.701445C7.82655 0.667874 7.90768 0.651088 7.99161 0.651088C8.08113 0.651088 8.16226 0.667874 8.235 0.701445C8.31333 0.729421 8.39446 0.785374 8.47839 0.869302L11.248 3.53823C11.3767 3.67252 11.4411 3.82079 11.4411 3.98306C11.4411 4.15091 11.3823 4.29079 11.2648 4.4027C11.1473 4.5146 11.0018 4.57056 10.8284 4.57056C10.6438 4.57056 10.4927 4.50341 10.3752 4.36913L9.08268 2.98431L8.61268 2.48913L8.66304 3.73966V12.2836C8.66304 12.4571 8.59589 12.6081 8.46161 12.7368C8.33292 12.8655 8.17625 12.9299 7.99161 12.9299Z" fill="black"/>
</svg>
