<svg width="17" height="15" viewBox="0 0 17 15" fill="none" xmlns="http://www.w3.org/2000/svg">
<path d="M8.70018 3.08437C8.85252 3.08437 8.98178 3.13746 9.08796 3.24364C9.19414 3.34982 9.24722 3.47907 9.24722 3.63142V8.39553L8.61709 6.45665L10.923 9.56579C11.0292 9.70428 11.0753 9.8497 11.0615 10.002C11.0522 10.1498 10.983 10.2675 10.8537 10.3552C10.7152 10.4521 10.5698 10.4891 10.4175 10.466C10.2698 10.4383 10.1382 10.3506 10.0228 10.2028L8.31241 7.94543C8.25701 7.87157 8.21546 7.80002 8.18776 7.73077C8.16006 7.65691 8.14622 7.57843 8.14622 7.49534V3.63142C8.14622 3.47907 8.1993 3.34982 8.30548 3.24364C8.41627 3.13746 8.54784 3.08437 8.70018 3.08437ZM8.96332 14.2053C8.18776 14.2053 7.44683 14.0806 6.74052 13.8313C6.03422 13.5867 5.38561 13.2404 4.79471 12.7926C4.20382 12.3495 3.68909 11.8347 3.25053 11.2485C3.13051 11.0961 3.08434 10.9369 3.11204 10.7707C3.14436 10.6045 3.22976 10.4775 3.36825 10.3898C3.51597 10.3021 3.6637 10.279 3.81142 10.3206C3.96376 10.3575 4.09302 10.4475 4.1992 10.5906C4.55005 11.08 4.97014 11.507 5.45948 11.8717C5.95343 12.2364 6.49586 12.518 7.08675 12.7165C7.67765 12.9196 8.30317 13.0235 8.96332 13.0281C9.78042 13.0327 10.5444 12.8827 11.2554 12.578C11.9663 12.2733 12.5895 11.8532 13.125 11.3177C13.6651 10.7776 14.0875 10.1521 14.3922 9.44114C14.6969 8.7256 14.8492 7.95928 14.8492 7.14218C14.8492 6.32508 14.6969 5.56107 14.3922 4.85014C14.0875 4.13922 13.6651 3.51601 13.125 2.9805C12.5895 2.44039 11.9663 2.02029 11.2554 1.72023C10.5444 1.41555 9.78042 1.26321 8.96332 1.26321C8.14622 1.26321 7.3822 1.41555 6.67128 1.72023C5.96035 2.02029 5.33483 2.43808 4.79471 2.97358C4.2546 3.50908 3.8322 4.13229 3.52752 4.84322C3.22745 5.55414 3.07742 6.31816 3.07742 7.13526H1.90024C1.90024 6.17043 2.08489 5.26331 2.4542 4.41389C2.82352 3.55986 3.33363 2.8097 3.98454 2.1634C4.63545 1.51249 5.38561 1.00238 6.23503 0.633069C7.08906 0.263757 7.99849 0.0791016 8.96332 0.0791016C9.92814 0.0791016 10.8353 0.263757 11.6847 0.633069C12.5387 1.00238 13.2912 1.51249 13.9421 2.1634C14.593 2.81431 15.1031 3.56679 15.4724 4.42082C15.8417 5.27023 16.0264 6.17736 16.0264 7.14218C16.0264 8.10701 15.8417 9.01644 15.4724 9.87047C15.1031 10.7199 14.593 11.47 13.9421 12.121C13.2912 12.7719 12.5387 13.282 11.6847 13.6513C10.8353 14.0206 9.92814 14.2053 8.96332 14.2053ZM1.04851 5.80574H4.2269C4.38847 5.80574 4.51081 5.84036 4.5939 5.9096C4.677 5.97423 4.71624 6.06195 4.71162 6.17274C4.71162 6.27892 4.66776 6.39663 4.58005 6.52589L3.02895 8.73484C2.91815 8.89179 2.78889 8.97258 2.64117 8.9772C2.49344 8.9772 2.36188 8.89641 2.24647 8.73484L0.695359 6.53282C0.607648 6.40356 0.561484 6.28353 0.556868 6.17274C0.552251 6.06195 0.591491 5.97423 0.674586 5.9096C0.757681 5.84036 0.882323 5.80574 1.04851 5.80574Z" fill="#757575"/>
</svg>
