<svg width="17" height="19" viewBox="0 0 17 19" fill="none" xmlns="http://www.w3.org/2000/svg">
<path d="M5.07031 4.53906V2.78906C5.07031 2.22656 5.24219 1.78385 5.58594 1.46094C5.9349 1.13281 6.40885 0.96875 7.00781 0.96875H9.97656C10.5755 0.96875 11.0469 1.13281 11.3906 1.46094C11.7396 1.78385 11.9141 2.22656 11.9141 2.78906V4.53906H10.6719V2.86719C10.6719 2.64844 10.599 2.47135 10.4531 2.33594C10.3125 2.20052 10.125 2.13281 9.89062 2.13281H7.09375C6.85938 2.13281 6.66927 2.20052 6.52344 2.33594C6.38281 2.47135 6.3125 2.64844 6.3125 2.86719V4.53906H5.07031ZM1.52344 5.16406C1.36719 5.16406 1.22917 5.10677 1.10938 4.99219C0.994792 4.8724 0.9375 4.73177 0.9375 4.57031C0.9375 4.41406 0.994792 4.27865 1.10938 4.16406C1.22917 4.04427 1.36719 3.98438 1.52344 3.98438H15.4844C15.6406 3.98438 15.776 4.04167 15.8906 4.15625C16.0052 4.27083 16.0625 4.40885 16.0625 4.57031C16.0625 4.73177 16.0052 4.8724 15.8906 4.99219C15.7812 5.10677 15.6458 5.16406 15.4844 5.16406H1.52344ZM4.92188 18.3672C4.35938 18.3672 3.90365 18.2005 3.55469 17.8672C3.21094 17.5391 3.02604 17.0938 3 16.5312L2.44531 5.01562H3.67188L4.22656 16.3906C4.23698 16.6198 4.31771 16.8099 4.46875 16.9609C4.61979 17.112 4.80729 17.1875 5.03125 17.1875H11.9609C12.1901 17.1875 12.3802 17.112 12.5312 16.9609C12.6823 16.8151 12.763 16.625 12.7734 16.3906L13.2969 5.01562H14.5547L14.0078 16.5234C13.9818 17.0859 13.7943 17.5339 13.4453 17.8672C13.0964 18.2005 12.6432 18.3672 12.0859 18.3672H4.92188ZM6.1875 15.8516C6.04167 15.8516 5.92448 15.8099 5.83594 15.7266C5.7474 15.6432 5.70052 15.5312 5.69531 15.3906L5.46094 7.03906C5.45573 6.90365 5.4974 6.79427 5.58594 6.71094C5.67969 6.6224 5.79948 6.57812 5.94531 6.57812C6.08594 6.57812 6.20052 6.61979 6.28906 6.70312C6.38281 6.78646 6.42969 6.89583 6.42969 7.03125L6.67188 15.3906C6.67188 15.526 6.6276 15.638 6.53906 15.7266C6.45052 15.8099 6.33333 15.8516 6.1875 15.8516ZM8.5 15.8516C8.35417 15.8516 8.23438 15.8099 8.14062 15.7266C8.04688 15.638 8 15.526 8 15.3906V7.03906C8 6.90365 8.04688 6.79427 8.14062 6.71094C8.23438 6.6224 8.35417 6.57812 8.5 6.57812C8.65104 6.57812 8.77344 6.6224 8.86719 6.71094C8.96094 6.79427 9.00781 6.90365 9.00781 7.03906V15.3906C9.00781 15.526 8.96094 15.638 8.86719 15.7266C8.77344 15.8099 8.65104 15.8516 8.5 15.8516ZM10.8203 15.8516C10.6693 15.8516 10.5495 15.8099 10.4609 15.7266C10.3724 15.638 10.3307 15.526 10.3359 15.3906L10.5703 7.03906C10.5755 6.89844 10.6224 6.78646 10.7109 6.70312C10.7995 6.61979 10.9141 6.57812 11.0547 6.57812C11.2057 6.57812 11.3255 6.6224 11.4141 6.71094C11.5026 6.79427 11.5443 6.90365 11.5391 7.03906L11.3047 15.3906C11.2995 15.5312 11.2526 15.6432 11.1641 15.7266C11.0755 15.8099 10.9609 15.8516 10.8203 15.8516Z" fill="#757575"/>
</svg>
