<svg width="16" height="14" viewBox="0 0 16 14" fill="none" xmlns="http://www.w3.org/2000/svg">
<path d="M4.1543 11.8497C3.63086 11.8497 3.24414 11.7247 2.99414 11.4747C2.74414 11.2247 2.61914 10.838 2.61914 10.3145V9.04889C2.61914 8.9317 2.58008 8.83209 2.50195 8.75006L1.60547 7.84772C1.23438 7.48053 1.04883 7.12115 1.04883 6.76959C1.04883 6.41803 1.23438 6.0567 1.60547 5.68561L2.50195 4.78326C2.58008 4.70123 2.61914 4.60358 2.61914 4.49029V3.21881C2.61914 2.69147 2.74414 2.30475 2.99414 2.05865C3.24414 1.80865 3.63086 1.68365 4.1543 1.68365H5.42578C5.54297 1.68365 5.64062 1.64459 5.71875 1.56647L6.62109 0.669982C6.99219 0.298889 7.35352 0.113342 7.70508 0.113342C8.05664 0.109435 8.41602 0.294982 8.7832 0.669982L9.68555 1.56647C9.76758 1.64459 9.86719 1.68365 9.98438 1.68365H11.25C11.7773 1.68365 12.1641 1.81061 12.4102 2.06451C12.6602 2.31451 12.7852 2.69928 12.7852 3.21881V4.49029C12.7852 4.60358 12.8262 4.70123 12.9082 4.78326L13.8047 5.68561C14.1719 6.0567 14.3555 6.41803 14.3555 6.76959C14.3594 7.12115 14.1758 7.48053 13.8047 7.84772L12.9082 8.75006C12.8262 8.83209 12.7852 8.9317 12.7852 9.04889V10.3145C12.7852 10.8419 12.6602 11.2286 12.4102 11.4747C12.1602 11.7247 11.7734 11.8497 11.25 11.8497H9.98438C9.86719 11.8497 9.76758 11.8907 9.68555 11.9727L8.7832 12.8692C8.41602 13.2364 8.05664 13.42 7.70508 13.42C7.35352 13.4239 6.99219 13.2403 6.62109 12.8692L5.71875 11.9727C5.64062 11.8907 5.54297 11.8497 5.42578 11.8497H4.1543ZM7.04883 9.62897C7.15039 9.62897 7.24219 9.60553 7.32422 9.55865C7.40625 9.51178 7.47852 9.44147 7.54102 9.34772L10.2949 5.00592C10.3301 4.94733 10.3633 4.88483 10.3945 4.81842C10.4258 4.75201 10.4414 4.68561 10.4414 4.6192C10.4414 4.48248 10.3906 4.37506 10.2891 4.29694C10.1875 4.2149 10.0742 4.17389 9.94922 4.17389C9.77734 4.17389 9.63672 4.26373 9.52734 4.44342L7.02539 8.46295L5.83594 6.92779C5.76172 6.83014 5.68945 6.76373 5.61914 6.72858C5.55273 6.69342 5.47656 6.67584 5.39062 6.67584C5.25781 6.67584 5.14648 6.72467 5.05664 6.82233C4.9668 6.91608 4.92188 7.02936 4.92188 7.16217C4.92188 7.22858 4.93359 7.29498 4.95703 7.36139C4.98438 7.42389 5.01953 7.48444 5.0625 7.54303L6.5332 9.34772C6.61133 9.44928 6.69141 9.52154 6.77344 9.56451C6.85547 9.60748 6.94727 9.62897 7.04883 9.62897Z" fill="#0D0D0D"/>
</svg>
