<svg width="48" height="48" viewBox="0 0 48 48" fill="none" xmlns="http://www.w3.org/2000/svg">
<g filter="url(#filter0_d_216_3335)">
<rect x="8" y="8" width="32" height="32" rx="16" fill="#0D0D0D"/>
<rect x="9" y="9" width="30" height="30" rx="15" stroke="white" stroke-width="2"/>
<path d="M24 30.9727C23.0475 30.9727 22.1497 30.7904 21.3066 30.4258C20.4681 30.0612 19.7275 29.5576 19.085 28.915C18.4424 28.2725 17.9388 27.5319 17.5742 26.6934C17.2096 25.8503 17.0273 24.9525 17.0273 24C17.0273 23.0475 17.2096 22.152 17.5742 21.3135C17.9388 20.4704 18.4401 19.7275 19.0781 19.085C19.7207 18.4424 20.4613 17.9388 21.2998 17.5742C22.1429 17.2096 23.0407 17.0273 23.9932 17.0273C24.9456 17.0273 25.8434 17.2096 26.6865 17.5742C27.5296 17.9388 28.2725 18.4424 28.915 19.085C29.5576 19.7275 30.0612 20.4704 30.4258 21.3135C30.7904 22.152 30.9727 23.0475 30.9727 24C30.9727 24.9525 30.7904 25.8503 30.4258 26.6934C30.0612 27.5319 29.5576 28.2725 28.915 28.915C28.2725 29.5576 27.5296 30.0612 26.6865 30.4258C25.848 30.7904 24.9525 30.9727 24 30.9727ZM21.0537 27.5615L25.1006 25.5791C25.3148 25.4788 25.4766 25.3171 25.5859 25.0938L27.5547 21.0537C27.6322 20.8942 27.6504 20.7552 27.6094 20.6367C27.5729 20.5137 27.4932 20.4316 27.3701 20.3906C27.2516 20.3496 27.1081 20.3678 26.9395 20.4453L22.9131 22.4141C22.8037 22.4642 22.708 22.5303 22.626 22.6123C22.5485 22.6898 22.4801 22.7878 22.4209 22.9062L20.4453 26.9531C20.3724 27.1081 20.3564 27.2448 20.3975 27.3633C20.4385 27.4818 20.5182 27.5638 20.6367 27.6094C20.7598 27.6504 20.8988 27.6344 21.0537 27.5615ZM24.0068 24.875C23.7699 24.875 23.5648 24.7907 23.3916 24.6221C23.223 24.4489 23.1387 24.2438 23.1387 24.0068C23.1387 23.7699 23.223 23.5671 23.3916 23.3984C23.5648 23.2298 23.7699 23.1455 24.0068 23.1455C24.2438 23.1455 24.4466 23.2298 24.6152 23.3984C24.7839 23.5671 24.8682 23.7699 24.8682 24.0068C24.8682 24.2438 24.7839 24.4489 24.6152 24.6221C24.4466 24.7907 24.2438 24.875 24.0068 24.875Z" fill="white"/>
</g>
<defs>
<filter id="filter0_d_216_3335" x="0" y="0" width="48" height="48" filterUnits="userSpaceOnUse" color-interpolation-filters="sRGB">
<feFlood flood-opacity="0" result="BackgroundImageFix"/>
<feColorMatrix in="SourceAlpha" type="matrix" values="0 0 0 0 0 0 0 0 0 0 0 0 0 0 0 0 0 0 127 0" result="hardAlpha"/>
<feOffset/>
<feGaussianBlur stdDeviation="4"/>
<feComposite in2="hardAlpha" operator="out"/>
<feColorMatrix type="matrix" values="0 0 0 0 0 0 0 0 0 0 0 0 0 0 0 0 0 0 0.25 0"/>
<feBlend mode="normal" in2="BackgroundImageFix" result="effect1_dropShadow_216_3335"/>
<feBlend mode="normal" in="SourceGraphic" in2="effect1_dropShadow_216_3335" result="shape"/>
</filter>
</defs>
</svg>
